<svg width="29" height="29" viewBox="0 0 29 29" fill="none" xmlns="http://www.w3.org/2000/svg">
<path d="M11.4792 1.20831C8.49043 1.20831 6.04166 3.65708 6.04166 6.64581C6.04166 8.38901 6.92791 9.8779 8.21525 10.875C6.92791 11.8721 6.04166 13.3609 6.04166 15.1041C6.04166 16.8473 6.92791 18.3362 8.21525 19.3333C6.92791 20.3304 6.04166 21.8193 6.04166 23.5625C6.04166 26.5512 8.49043 29 11.4792 29C14.4679 29 16.9167 26.5512 16.9167 23.5625V19.3333V12.0833H19.9375C22.9262 12.0833 25.375 9.63455 25.375 6.64581C25.375 3.65708 22.9262 1.20831 19.9375 1.20831H15.7083H11.4792ZM11.4792 3.62498H14.5V9.66665H11.4792C9.79649 9.66665 8.45833 8.32849 8.45833 6.64581C8.45833 4.96313 9.79649 3.62498 11.4792 3.62498ZM16.9167 3.62498H19.9375C21.6202 3.62498 22.9583 4.96313 22.9583 6.64581C22.9583 8.32849 21.6202 9.66665 19.9375 9.66665H16.9167V3.62498ZM11.4792 12.0833H14.5V18.125H11.4792C9.79649 18.125 8.45833 16.7868 8.45833 15.1041C8.45833 13.4215 9.79649 12.0833 11.4792 12.0833ZM20.5417 12.0833C19.5803 12.0833 18.6582 12.4652 17.9784 13.1451C17.2986 13.8249 16.9167 14.7469 16.9167 15.7083C16.9167 16.6697 17.2986 17.5918 17.9784 18.2716C18.6582 18.9514 19.5803 19.3333 20.5417 19.3333C21.5031 19.3333 22.4251 18.9514 23.1049 18.2716C23.7847 17.5918 24.1667 16.6697 24.1667 15.7083C24.1667 14.7469 23.7847 13.8249 23.1049 13.1451C22.4251 12.4652 21.5031 12.0833 20.5417 12.0833ZM11.4792 20.5416H14.5V23.5625C14.5 25.2452 13.1618 26.5833 11.4792 26.5833C9.79649 26.5833 8.45833 25.2452 8.45833 23.5625C8.45833 21.8798 9.79649 20.5416 11.4792 20.5416Z" fill="#EFF2F8"/>
</svg>
