<svg width="36" height="36" viewBox="0 0 36 36" fill="none" xmlns="http://www.w3.org/2000/svg">
<path d="M18 3.59998C10.0477 3.59998 3.6 10.0476 3.6 18C3.6 25.9523 10.0477 32.4 18 32.4C25.9523 32.4 32.4 25.9523 32.4 18C32.4 10.0476 25.9523 3.59998 18 3.59998ZM12.5953 10.0828C13.6055 10.0828 14.2781 10.7578 14.2781 11.6554C14.2781 12.5531 13.6055 13.2258 12.4828 13.2258C11.4727 13.2258 10.8 12.5531 10.8 11.6554C10.8 10.7578 11.4727 10.0828 12.5953 10.0828ZM14.4 24H10.8V14.4H14.4V24ZM26.4 24H23.0109V18.7547C23.0109 17.3039 22.1086 16.9687 21.7687 16.9687C21.4312 16.9687 20.3016 17.1914 20.3016 18.7547C20.3016 18.9773 20.3016 24 20.3016 24H16.8V14.4H20.3016V15.7383C20.7539 14.9578 21.6562 14.4 23.3508 14.4C25.0453 14.4 26.4 15.7383 26.4 18.7547V24Z" fill="#EFF2F8"/>
</svg>
