<svg width="44" height="44" viewBox="0 0 44 44" fill="none" xmlns="http://www.w3.org/2000/svg">
<path d="M15.6636 6.13306C14.7674 6.13306 13.9363 6.33367 13.2 6.75754C10.899 8.08603 10.0232 11.3235 10.4873 15.3542C6.76532 16.9676 4.40002 19.3434 4.40002 22C4.40002 24.6566 6.76532 27.0324 10.4873 28.6458C10.0234 32.6764 10.899 35.9139 13.2 37.2424C13.9348 37.6663 14.766 37.8669 15.6636 37.8669C17.5741 37.8669 19.7822 36.9081 22 35.263C24.218 36.9081 26.4288 37.8669 28.3393 37.8669C29.2355 37.8669 30.0666 37.6663 30.8029 37.2424C33.1039 35.9139 33.9797 32.6765 33.5156 28.6458C37.2362 27.0324 39.6 24.656 39.6 22C39.6 19.3434 37.2347 16.9676 33.5128 15.3542C33.9766 11.3236 33.101 8.08603 30.8 6.75754C30.0652 6.3322 29.2341 6.13306 28.3365 6.13306C26.426 6.13306 24.2178 7.09192 22 8.73696C19.7821 7.09192 17.5734 6.13306 15.6636 6.13306ZM15.6636 8.69972C16.81 8.69972 18.326 9.30928 19.9719 10.4385C19.0042 11.3518 18.0564 12.3903 17.1446 13.5466C15.6656 13.7587 14.2712 14.0678 12.9794 14.4547C12.9725 14.3651 12.9561 14.2711 12.9508 14.1825C12.7939 11.5719 13.3672 9.62579 14.4834 8.98045C14.8134 8.78979 15.1986 8.69972 15.6636 8.69972ZM28.3365 8.69972C28.7999 8.69972 29.1867 8.78979 29.5167 8.98045C30.6328 9.62432 31.2062 11.5719 31.0492 14.1825C31.0439 14.2711 31.0276 14.3651 31.0206 14.4547C29.728 14.0676 28.3326 13.7587 26.8526 13.5466C25.9408 12.3904 24.9959 11.3517 24.0281 10.4385C25.674 9.30947 27.1907 8.69972 28.3365 8.69972ZM22 12.0685C22.3976 12.4304 22.7924 12.8128 23.1917 13.2315C22.796 13.2182 22.4024 13.2 22 13.2C21.5986 13.2 21.206 13.2183 20.8112 13.2315C21.2101 12.8133 21.6028 12.43 22 12.0685ZM22 15.7667C23.2154 15.7667 24.3674 15.8346 25.4604 15.9528C26.127 16.8589 26.784 17.8168 27.3998 18.8833C27.99 19.9056 28.5119 20.952 28.9724 22C28.5119 23.0486 27.9903 24.0966 27.3998 25.1195C26.7859 26.183 26.1306 27.1347 25.4662 28.0385C24.3345 28.1623 23.1737 28.2333 22 28.2333C20.7846 28.2333 19.6326 28.1654 18.5396 28.0471C17.873 27.1411 17.2161 26.1861 16.6003 25.1195C16.0097 24.0966 15.4883 23.0486 15.0276 22C15.488 20.952 16.01 19.9056 16.6003 18.8833C17.2144 17.8199 17.8693 16.8653 18.5339 15.9614C19.6655 15.8376 20.8264 15.7667 22 15.7667ZM28.961 16.5601C29.5429 16.7006 30.1023 16.8523 30.6281 17.0213C30.509 17.5597 30.3633 18.1083 30.1985 18.6627C30.0097 18.3086 29.8267 17.9533 29.6227 17.6C29.4128 17.2365 29.1797 16.91 28.961 16.5601ZM15.0362 16.563C14.8182 16.9118 14.5866 17.2377 14.3774 17.6C14.1734 17.9534 13.9903 18.3085 13.8016 18.6627C13.6364 18.1072 13.4883 17.5579 13.369 17.0185C13.9046 16.8493 14.4626 16.6994 15.0362 16.563ZM10.9542 17.9609C11.2632 19.2657 11.6919 20.6183 12.2433 21.9971C11.6931 23.3727 11.2662 24.7228 10.9571 26.0247C8.4029 24.7913 6.96669 23.256 6.96669 22C6.96669 20.7108 8.36277 19.2416 10.7021 18.0726C10.782 18.0327 10.8726 17.9999 10.9542 17.9609ZM33.043 17.9752C35.5971 19.2086 37.0334 20.744 37.0334 22C37.0334 23.2892 35.6373 24.7584 33.2979 25.9273C33.2181 25.9673 33.1274 26 33.0459 26.039C32.7366 24.7335 32.3115 23.3797 31.7597 22C32.3092 20.6256 32.7341 19.2761 33.043 17.9752ZM22 19.0667C20.3794 19.0667 19.0667 20.3793 19.0667 22C19.0667 23.6207 20.3794 24.9333 22 24.9333C23.6207 24.9333 24.9334 23.6207 24.9334 22C24.9334 20.3793 23.6207 19.0667 22 19.0667ZM13.8016 25.3372C13.9904 25.6915 14.1761 26.0465 14.3802 26.4C14.5899 26.7632 14.8206 27.0902 15.0391 27.4398C14.4572 27.2993 13.8978 27.1477 13.3719 26.9786C13.4911 26.44 13.6366 25.892 13.8016 25.3372ZM30.1985 25.3401C30.3635 25.8951 30.5118 26.4426 30.631 26.9815C30.0955 27.1507 29.5375 27.3005 28.9638 27.437C29.1818 27.0882 29.4134 26.7623 29.6227 26.4C29.8262 26.0473 30.0101 25.6936 30.1985 25.3401ZM12.9794 29.5453C14.272 29.9324 15.6674 30.2413 17.1474 30.4534C18.0595 31.6101 19.0037 32.6508 19.9719 33.5643C18.3261 34.6932 16.8099 35.3031 15.6636 35.3031C15.2001 35.3031 14.8134 35.2102 14.4834 35.0195C13.3672 34.3757 12.7939 32.431 12.9508 29.8203C12.9562 29.7308 12.9724 29.6358 12.9794 29.5453ZM31.0206 29.5453C31.0276 29.6358 31.0439 29.7308 31.0492 29.8203C31.2062 32.431 30.6328 34.3742 29.5167 35.0195C29.1867 35.2102 28.8014 35.3031 28.3365 35.3031C27.1902 35.3031 25.674 34.6934 24.0281 33.5643C24.9964 32.6507 25.9432 31.6103 26.8555 30.4534C28.3344 30.2413 29.7288 29.9322 31.0206 29.5453ZM20.8084 30.7685C21.204 30.7818 21.5976 30.8 22 30.8C22.4024 30.8 22.796 30.7818 23.1917 30.7685C22.7924 31.1871 22.3976 31.5696 22 31.9315C21.6024 31.5696 21.2076 31.1871 20.8084 30.7685Z" fill="#161320"/>
</svg>
