<svg  width="40" height="40" viewBox="0 0 40 40" fill="none" xmlns="http://www.w3.org/2000/svg">
<path d="M19.58 9.05997C13.12 9.26529 11.2 13.88 10.76 16.38C11.3333 15.4533 13.14 13.42 15.8 13.42C18.9 13.42 21.26 16.88 22.7 17.96C24.4495 19.2721 27.9649 21.0046 32.58 19.6C36.26 18.48 37.9667 14.5733 38.34 12.72C36.56 15.14 33.86 16.5935 30.52 14.88C28.22 13.7 26.5 8.84001 19.58 9.05997Z" fill="#161320"/>
<path d="M10.44 20.0399C3.98 20.2453 2.06 24.86 1.62 27.36C2.19333 26.4333 4 24.4 6.66 24.4C9.76 24.4 12.12 27.86 13.56 28.94C15.3095 30.2521 18.8249 31.9846 23.44 30.58C27.12 29.46 28.8267 25.5533 29.2 23.7C27.42 26.12 24.72 27.5735 21.38 25.86C19.08 24.68 17.36 19.82 10.44 20.0399Z" fill="#161320"/>
</svg>
