<svg width="46" height="46" viewBox="0 0 46 46" fill="none" xmlns="http://www.w3.org/2000/svg">
<path d="M40.25 23H35.9375" stroke="#161320" stroke-width="3" stroke-linecap="round" stroke-linejoin="round"/>
<path d="M10.0625 23H5.75" stroke="#161320" stroke-width="3" stroke-linecap="round" stroke-linejoin="round"/>
<path d="M25.875 23H20.125" stroke="#161320" stroke-width="3" stroke-linecap="round" stroke-linejoin="round"/>
<path d="M35.9375 33.0625V12.9375C35.9375 12.1436 35.2939 11.5 34.5 11.5H27.3125C26.5186 11.5 25.875 12.1436 25.875 12.9375V33.0625C25.875 33.8564 26.5186 34.5 27.3125 34.5H34.5C35.2939 34.5 35.9375 33.8564 35.9375 33.0625Z" stroke="#161320" stroke-width="3" stroke-linecap="round" stroke-linejoin="round"/>
<path d="M18.6875 7.1875H11.5C10.7061 7.1875 10.0625 7.83109 10.0625 8.625V37.375C10.0625 38.1689 10.7061 38.8125 11.5 38.8125H18.6875C19.4814 38.8125 20.125 38.1689 20.125 37.375V8.625C20.125 7.83109 19.4814 7.1875 18.6875 7.1875Z" stroke="#161320" stroke-width="3" stroke-linecap="round" stroke-linejoin="round"/>
</svg>
