<svg width="29" height="29" viewBox="0 0 29 29" fill="none" xmlns="http://www.w3.org/2000/svg">
<path d="M14.0469 24.4688H23.5965C23.7115 24.4703 23.8256 24.4488 23.9321 24.4055C24.0386 24.3622 24.1354 24.298 24.2167 24.2167C24.298 24.1354 24.3622 24.0386 24.4055 23.9321C24.4488 23.8256 24.4703 23.7115 24.4688 23.5965V14.0469C24.4688 11.2828 23.3708 8.63198 21.4163 6.6775C19.4618 4.72302 16.811 3.625 14.0469 3.625C12.6783 3.625 11.3231 3.89457 10.0586 4.41832C8.7942 4.94207 7.6453 5.70974 6.67754 6.6775C5.70978 7.64526 4.94211 8.79416 4.41836 10.0586C3.89462 11.323 3.62505 12.6783 3.62505 14.0469C3.62505 15.4155 3.89462 16.7707 4.41836 18.0352C4.94211 19.2996 5.70978 20.4485 6.67754 21.4163C7.6453 22.384 8.7942 23.1517 10.0586 23.6754C11.3231 24.1992 12.6783 24.4688 14.0469 24.4688Z" stroke="white" stroke-width="2" stroke-linecap="round" stroke-linejoin="round"/>
<path d="M12.7344 14.5C12.7344 15.2249 13.322 15.8125 14.0469 15.8125C14.7717 15.8125 15.3594 15.2249 15.3594 14.5C15.3594 13.7751 14.7717 13.1875 14.0469 13.1875C13.322 13.1875 12.7344 13.7751 12.7344 14.5Z" fill="white" stroke="white" stroke-width="0.09375"/>
<path d="M18.1719 14.5C18.1719 15.2249 18.7595 15.8125 19.4844 15.8125C20.2092 15.8125 20.7969 15.2249 20.7969 14.5C20.7969 13.7751 20.2092 13.1875 19.4844 13.1875C18.7595 13.1875 18.1719 13.7751 18.1719 14.5Z" fill="white" stroke="white" stroke-width="0.09375"/>
<path d="M7.29688 14.5C7.29688 15.2249 7.8845 15.8125 8.60938 15.8125C9.33425 15.8125 9.92188 15.2249 9.92188 14.5C9.92188 13.7751 9.33425 13.1875 8.60938 13.1875C7.8845 13.1875 7.29688 13.7751 7.29688 14.5Z" fill="white" stroke="white" stroke-width="0.09375"/>
</svg>
