<svg width="35" height="36" viewBox="0 0 35 36" fill="none" xmlns="http://www.w3.org/2000/svg">
<path d="M15.4251 4.08015C8.94129 4.87173 3.78755 10.1635 3.16571 16.5248C2.5476 23.1684 6.43714 29.0466 12.2544 31.2286C12.6797 31.3642 13.0994 31.0763 13.092 30.5117L13.0621 28.2532C13.0621 28.2532 12.4994 28.4018 11.7936 28.4111C9.81741 28.4372 8.94809 26.7546 8.79388 25.7683C8.64526 25.2056 8.35735 24.7858 7.92829 24.368C7.50296 24.2324 7.36181 24.2343 7.35994 24.0931C7.35621 23.8108 7.77968 23.8052 7.92083 23.8033C8.76776 23.7922 9.4866 24.7709 9.7745 25.1907C10.4952 26.3106 11.3459 26.5817 11.7693 26.5761C12.334 26.5686 12.7556 26.4219 13.036 26.277C13.1641 25.287 13.5745 24.2934 14.414 23.7175C11.1581 23.0547 8.73419 21.2514 8.69315 18.1459C8.67264 16.5932 9.3579 15.0312 10.3311 13.8889C10.1862 13.6084 10.0357 12.9045 10.0226 11.9164C10.0152 11.3518 10.004 10.5049 10.4163 9.65236C10.4163 9.65236 12.3924 9.62625 14.3929 11.4352C15.0949 11.1435 16.0811 10.9893 17.0692 10.9763C18.0573 10.9632 19.0473 11.0913 19.8979 11.3624C21.7087 9.50315 23.826 9.47517 23.826 9.47517C24.1195 10.3184 24.1307 11.1653 24.1382 11.7299C24.1531 12.8592 24.0194 13.4257 23.882 13.7098C24.885 14.826 25.6094 16.2282 25.6318 17.9221C25.6728 21.0275 23.2974 22.8943 20.0602 23.6429C20.9165 24.3375 21.4979 25.6005 21.5147 26.8709L21.5631 30.5409C21.5687 30.9644 21.9978 31.3822 22.5606 31.2336C27.7553 29.0473 31.3582 23.9172 31.2799 17.9887C31.168 9.51933 23.8814 2.98015 15.4251 4.08015Z" fill="#EFF2F8"/>
</svg>
