<svg width="48" height="48" viewBox="0 0 48 48" fill="none" xmlns="http://www.w3.org/2000/svg">
<rect x="0.5" y="0.5" width="47" height="47" rx="7.5" fill="#8257E5" stroke="black"/>
<path d="M24.6562 38.4375H10.8258C10.6593 38.4397 10.494 38.4085 10.3397 38.3458C10.1855 38.2831 10.0453 38.1902 9.92758 38.0724C9.80983 37.9547 9.71686 37.8145 9.65416 37.6603C9.59145 37.506 9.56028 37.3407 9.56249 37.1742V23.3438C9.56249 19.3406 11.1527 15.5015 13.9833 12.6709C16.814 9.84023 20.6531 8.25 24.6562 8.25C26.6384 8.25 28.6011 8.64041 30.4324 9.39894C32.2636 10.1575 33.9275 11.2693 35.3291 12.6709C36.7307 14.0724 37.8425 15.7364 38.601 17.5676C39.3596 19.3989 39.75 21.3616 39.75 23.3438C39.75 25.3259 39.3596 27.2886 38.601 29.1199C37.8425 30.9511 36.7307 32.6151 35.3291 34.0166C33.9275 35.4182 32.2636 36.53 30.4324 37.2886C28.6011 38.0471 26.6384 38.4375 24.6562 38.4375Z" stroke="white" stroke-width="4" stroke-linecap="round" stroke-linejoin="round"/>
<path d="M26.5781 24C26.5781 25.0614 25.7177 25.9219 24.6562 25.9219C23.5948 25.9219 22.7344 25.0614 22.7344 24C22.7344 22.9386 23.5948 22.0781 24.6562 22.0781C25.7177 22.0781 26.5781 22.9386 26.5781 24Z" fill="white" stroke="white" stroke-width="0.09375"/>
<path d="M18.7031 24C18.7031 25.0614 17.8427 25.9219 16.7812 25.9219C15.7198 25.9219 14.8594 25.0614 14.8594 24C14.8594 22.9386 15.7198 22.0781 16.7812 22.0781C17.8427 22.0781 18.7031 22.9386 18.7031 24Z" fill="white" stroke="white" stroke-width="0.09375"/>
<path d="M34.4531 24C34.4531 25.0614 33.5927 25.9219 32.5312 25.9219C31.4698 25.9219 30.6094 25.0614 30.6094 24C30.6094 22.9386 31.4698 22.0781 32.5312 22.0781C33.5927 22.0781 34.4531 22.9386 34.4531 24Z" fill="white" stroke="white" stroke-width="0.09375"/>
</svg>
